{"title":"Eekkes Toppon Ki Salaami (2015) 1CD WEBHD Rip x264 AAC - DUS","uid":11945364,"size":731001817,"categoryP":"video","categoryS":"other","magnet":"?xt=urn:btih:afcabaf2056af7c739c55c2a201ad410a7361bce&amp;dn=Eekkes+Toppon+Ki+Salaami+%282015%29+1CD+WEBHD+Rip+x264+AAC+-+DUS&amp;tr=udp%3A%2F%2Ftracker.openbittorrent.com%3A80&amp;tr=udp%3A%2F%2Fopen.demonii.com%3A1337&amp;tr=udp%3A%2F%2Ftracker.coppersurfer.tk%3A6969&amp;tr=udp%3A%2F%2Fexodus.desync.com%3A6969","seeders":1,"leechers":1,"uploader":"SS132203","files":2,"time":1432047779,"description":"Eekkes Toppon Ki Salaami (2015) 1CD WEBHD Rip x264 AAC - DUS\n &lt;a href=&quot;\nhttp://imgsparrow.co/image/He&quot; rel=&quot;nofollow&quot; target=&quot;_NEW&quot;&gt;\nhttp://imgsparrow.co/image/He&lt;/a&gt;\n &lt;a href=&quot;\nhttp://imgsparrow.co/image/TT&quot; rel=&quot;nofollow&quot; target=&quot;_NEW&quot;&gt;\nhttp://imgsparrow.co/image/TT&lt;/a&gt;\n\nInfo : - \n\nAll Credit Goes To Team DUS\n\nYear.............: 2015\nSource...........: WEBHD @ Telly\nSubtitiles : No\nRuntime .........: 2hr 13Mins\nContainer........: mkv\nResolution.......: 670x272\nOverall Bitrate..: 727 kbps\nAudio Language...: Hindi\nAudio............: AAC 2.0\nFrame rate.......: 25.00 fps\n\nFormat                                   : Matroska\nFormat version                           : Version 2\nFile size                                : 697 MiB\nDuration                                 : 2h 13mn\nOverall bit rate                         : 727 Kbps\nEncoded date                             : UTC 2015-05-18 21:22:38\nWriting application                      : mkvmerge v7.7.0 ('Six Voices') 32bit built on Feb 28 2015 23:23:00\nWriting library                          : libebml v1.3.1 + libmatroska v1.4.2\nDURATION                                 : 02:13:58.764000000\n\nVideo\nID                                       : 1\nFormat                                   : AVC\nFormat/Info                              : Advanced Video Codec\nFormat profile                           : &lt;a class=&quot;__cf_email__&quot; href=&quot;/cdn-cgi/l/email-protection&quot; data-cfemail=&quot;e0a8898788a0acd2ced1&quot;&gt;[email&amp;#160;protected]&lt;/a&gt;&lt;script data-cfhash='f9e31' type=&quot;text/javascript&quot;&gt;\n/* &lt;![CDATA[ */!function(){try{var t=&quot;currentScript&quot;in document?document.currentScript:function(){for(var t=document.getElementsByTagName(&quot;script&quot;),e=t.length;e--;)if(t[e].getAttribute(&quot;data-cfhash&quot;))return t[e]}();if(t&amp;&amp;t.previousSibling){var e,r,n,i,c=t.previousSibling,a=c.getAttribute(&quot;data-cfemail&quot;);if(a){for(e=&quot;&quot;,r=parseInt(a.substr(0,2),16),n=2;a.length-n;n+=2)i=parseInt(a.substr(n,2),16)^r,e+=String.fromCharCode(i);e=document.createTextNode(e),c.parentNode.replaceChild(e,c)}t.parentNode.removeChild(t);}}catch(u){}}()/* ]]&gt; */&lt;/script&gt;\nFormat settings, CABAC                   : Yes\nFormat settings, ReFrames                : 4 frames\nCodec ID                                 : V_MPEG4/ISO/AVC\nDuration                                 : 2h 13mn\nBit rate                                 : 630 Kbps\nWidth                                    : 640 pixels\nHeight                                   : 272 pixels\nDisplay aspect ratio                     : 2.35:1\nFrame rate                               : 25.000 fps\nColor space                              : YUV\nChroma subsampling                       : 4:2:0\nBit depth                                : 8 bits\nScan type                                : Progressive\nBits/(Pixel*Frame)                       : 0.145\nStream size                              : 591 MiB (85%)\nWriting library                          : x264 core 146 r2538 121396c\nEncoding settings                        : cabac=1 / ref=3 / deblock=1:0:0 / analyse=0x3:0x113 / me=hex / subme=7 / psy=1 / psy_rd=1.00:0.00 / mixed_ref=1 / me_range=16 / chroma_me=1 / trellis=1 / 8x8dct=1 / cqm=0 / deadzone=21,11 / fast_pskip=1 / chroma_qp_offset=-2 / threads=12 / lookahead_threads=2 / sliced_threads=0 / nr=0 / decimate=1 / interlaced=0 / bluray_compat=0 / constrained_intra=0 / bframes=3 / b_pyramid=2 / b_adapt=1 / b_bias=0 / direct=1 / weightb=1 / open_gop=0 / weightp=2 / keyint=250 / keyint_min=25 / scenecut=40 / intra_refresh=0 / rc_lookahead=40 / rc=2pass / mbtree=1 / bitrate=630 / ratetol=1.0 / qcomp=0.60 / qpmin=0 / qpmax=69 / qpstep=4 / cplxblur=20.0 / qblur=0.5 / ip_ratio=1.40 / aq=1:1.00\nDefault                                  : Yes\nForced                                   : No\n\nAudio\nID                                       : 2\nFormat                                   : MPEG Audio\nFormat version                           : Version 1\nFormat profile                           : Layer 3\nMode                                     : Joint stereo\nMode extension                           : MS Stereo\nCodec ID                                 : A_MPEG/L3\nCodec ID/Hint                            : MP3\nDuration                                 : 2h 13mn\nBit rate mode                            : Constant\nBit rate                                 : 96.0 Kbps\nChannel(s)                               : 2 channels\nSampling rate                            : 32.0 KHz\nCompression mode                         : Lossy\nStream size                              : 92.0 MiB (13%)\n\nScreens : - \n\nClick Image To View Full Size\n &lt;a href=&quot;\nhttp://imgsparrow.co/image/Tc&quot; rel=&quot;nofollow&quot; target=&quot;_NEW&quot;&gt;\nhttp://imgsparrow.co/image/Tc&lt;/a&gt; &lt;a href=&quot;\nhttp://imgsparrow.co/image/Td&quot; rel=&quot;nofollow&quot; target=&quot;_NEW&quot;&gt;\nhttp://imgsparrow.co/image/Td&lt;/a&gt; &lt;a href=&quot;\nhttp://imgsparrow.co/image/To&quot; rel=&quot;nofollow&quot; target=&quot;_NEW&quot;&gt;\nhttp://imgsparrow.co/image/To&lt;/a&gt; &lt;a href=&quot;\nhttp://imgsparrow.co/image/TM&quot; rel=&quot;nofollow&quot; target=&quot;_NEW&quot;&gt;\nhttp://imgsparrow.co/image/TM&lt;/a&gt; &lt;a href=&quot;\nhttp://imgsparrow.co/image/Tm&quot; rel=&quot;nofollow&quot; target=&quot;_NEW&quot;&gt;\nhttp://imgsparrow.co/image/Tm&lt;/a&gt; &lt;a href=&quot;\nhttp://imgsparrow.co/image/TF&quot; rel=&quot;nofollow&quot; target=&quot;_NEW&quot;&gt;\nhttp://imgsparrow.co/image/TF&lt;/a&gt; &lt;a href=&quot;\nhttp://imgsparrow.co/image/TO&quot; rel=&quot;nofollow&quot; target=&quot;_NEW&quot;&gt;\nhttp://imgsparrow.co/image/TO&lt;/a&gt; &lt;a href=&quot;\nhttp://imgsparrow.co/image/Tp&quot; rel=&quot;nofollow&quot; target=&quot;_NEW&quot;&gt;\nhttp://imgsparrow.co/image/Tp&lt;/a&gt;\n &lt;a href=&quot;\nhttp://imgsparrow.co/image/N2&quot; rel=&quot;nofollow&quot; target=&quot;_NEW&quot;&gt;\nhttp://imgsparrow.co/image/N2&lt;/a&gt;","torrent":{"xt":"urn:btih:afcabaf2056af7c739c55c2a201ad410a7361bce","amp;dn":"Eekkes+Toppon+Ki+Salaami+%282015%29+1CD+WEBHD+Rip+x264+AAC+-+DUS","amp;tr":["udp%3A%2F%2Ftracker.openbittorrent.com%3A80","udp%3A%2F%2Fopen.demonii.com%3A1337","udp%3A%2F%2Ftracker.coppersurfer.tk%3A6969","udp%3A%2F%2Fexodus.desync.com%3A6969"],"infoHash":"afcabaf2056af7c739c55c2a201ad410a7361bce","infoHashBuffer":{"type":"Buffer","data":[175,202,186,242,5,106,247,199,57,197,92,42,32,26,212,16,167,54,27,206]},"announce":[],"urlList":[]}}